<?xml version="1.0" encoding="UTF-8" standalone="no"?>
<!-- Created with Inkscape (http://www.inkscape.org/) -->

<svg
   width="508mm"
   height="285.75mm"
   viewBox="0 0 508 285.75"
   version="1.1"
   id="svg1"
   xml:space="preserve"
   xmlns="http://www.w3.org/2000/svg"
   xmlns:svg="http://www.w3.org/2000/svg"><defs
     id="defs1" /><g
     id="layer1"
     transform="translate(68.791664,-14.022917)"><rect
       style="opacity:1;fill:#e3037d;fill-opacity:1;stroke:none;stroke-width:21;stroke-linecap:round;stroke-linejoin:round;stroke-dasharray:none;stroke-opacity:1"
       id="rect7"
       width="508"
       height="285.75"
       x="-68.791664"
       y="14.022917" /><path
       style="baseline-shift:baseline;display:inline;overflow:visible;opacity:1;vector-effect:none;fill:#cd0373;stroke-linecap:round;stroke-linejoin:round;enable-background:accumulate;stop-color:#000000;stop-opacity:1"
       d="m 190.11133,50.935547 c -8.69152,-0.03554 -16.02452,5.746037 -20.38672,13.232422 L 74.648437,227.33789 c -8.842637,15.17568 2.674299,35.2168 20.238282,35.2168 H 284.13672 c 8.66717,0 17.3562,-3.42417 21.70312,-10.95508 4.34692,-7.53091 2.96561,-16.76434 -1.36914,-24.26953 C 282.17771,188.73195 232.6212,102.9117 210.39648,64.298828 206.07753,56.79515 198.80285,50.971083 190.11133,50.935547 Z m -0.0859,21 c -0.55377,-0.0023 0.29304,-0.421029 2.16992,2.839844 22.24665,38.650979 71.79757,124.456369 94.0918,163.056639 1.87732,3.2504 1.08665,3.75217 1.36523,3.26953 0.27859,-0.48263 0.23786,0.45313 -3.51562,0.45313 H 94.886719 c -2.380608,0 -3.292274,-1.58763 -2.09375,-3.64453 L 187.86914,74.740234 c 1.89101,-3.245341 2.71002,-2.802423 2.15625,-2.804687 z"
       id="path5-3"
       transform="translate(8.9958338,4.7625003)" /><path
       style="baseline-shift:baseline;display:inline;overflow:visible;opacity:1;vector-effect:none;fill:#e20355;stroke-linecap:round;stroke-linejoin:round;enable-background:accumulate;stop-color:#000000;stop-opacity:1"
       d="m 190.11133,50.935547 c -8.69152,-0.03554 -16.02452,5.746037 -20.38672,13.232422 L 74.648437,227.33789 c -8.842637,15.17568 2.674299,35.2168 20.238282,35.2168 H 284.13672 c 8.66717,0 17.3562,-3.42417 21.70312,-10.95508 4.34692,-7.53091 2.96561,-16.76434 -1.36914,-24.26953 C 282.17771,188.73195 232.6212,102.9117 210.39648,64.298828 206.07753,56.79515 198.80285,50.971083 190.11133,50.935547 Z m -0.0859,21 c -0.55377,-0.0023 0.29304,-0.421029 2.16992,2.839844 22.24665,38.650979 71.79757,124.456369 94.0918,163.056639 1.87732,3.2504 1.08665,3.75217 1.36523,3.26953 0.27859,-0.48263 0.23786,0.45313 -3.51562,0.45313 H 94.886719 c -2.380608,0 -3.292274,-1.58763 -2.09375,-3.64453 L 187.86914,74.740234 c 1.89101,-3.245341 2.71002,-2.802423 2.15625,-2.804687 z"
       id="path5" /><path
       style="opacity:1;fill:#8b034d;fill-opacity:1;stroke:none;stroke-width:21;stroke-linecap:round;stroke-linejoin:round;stroke-dasharray:none;stroke-opacity:1"
       d="m 177.63321,133.13229 c 0,-3.79148 0.89314,-14.55882 11.72126,-14.37684 10.82812,0.18199 13.10295,8.74102 13.10295,10.19118 0,2.66981 0.16514,5.13961 -0.18198,8.00735 -2.08273,17.2064 -6.8811,53.23594 -6.8811,53.23594 0,0 -1.02919,3.6032 -4.50363,3.47451 -3.47444,-0.12868 -4.64654,-3.47451 -4.64654,-3.47451 0,0 -8.61096,-53.86869 -8.61096,-57.05763 z"
       id="path6" /><circle
       style="opacity:1;fill:#8b034d;fill-opacity:1;stroke:none;stroke-width:23.4286;stroke-linecap:round;stroke-linejoin:round;stroke-dasharray:none;stroke-opacity:1"
       id="path7"
       cx="190.37599"
       cy="212.58086"
       r="10.55201" /><g
       id="text1"
       style="font-size:39.7404px;line-height:1.2;font-family:DFLiSong-Bd;-inkscape-font-specification:DFLiSong-Bd;text-align:center;letter-spacing:0px;text-anchor:middle;display:inline;opacity:0.98817;fill:#ffffff;stroke-width:1.04305;stroke-linecap:square"
       aria-label="嚴重事故&#10;請立即離開本站">
      <animate
        attributeName="opacity"
        values="1;0"
        dur="0.4s"
        repeatCount="indefinite"
        calcMode="discrete"
        />
      <path
         d="m 115.81788,64.108041 q -0.0388,0.931416 -2.44497,1.047843 -2.48378,0 -2.6002,-0.620944 0.15523,-1.397124 0.15523,-3.686853 v -3.221146 q -0.0776,-0.814989 -0.15523,-1.474741 l 3.76447,1.474741 h 5.39445 q 2.09568,-1.979258 2.63901,-1.979258 0.4269,0 1.97926,1.280696 1.3195,0.892607 1.3195,1.319506 0,0.582134 -1.00903,1.280696 v 3.182337 q 0.0388,0.465707 0.0776,1.009033 0,1.047843 -2.60021,1.086652 -1.90164,0 -2.09568,-0.504517 v -0.194045 z m 4.42422,-1.280696 v -3.997326 h -4.42422 v 3.997326 z m 11.17699,0.970224 v 0.77618 q -0.0388,0.892606 -2.48378,1.047842 -2.44496,0 -2.52258,-0.582134 0.11642,-1.397124 0.11642,-3.725663 V 57.66575 q -0.0388,-0.892607 -0.11642,-1.591168 l 4.23018,1.629977 h 5.00636 q 2.09568,-1.824022 2.67782,-1.824022 0.38809,0 1.94044,1.280696 1.35832,0.892607 1.35832,1.358315 0,0.543325 -0.97023,1.241887 v 2.833056 q 0.0388,0.426899 0.0776,0.892606 0,0.504517 -0.50451,0.737371 2.48377,2.134494 2.91067,2.755438 -0.11643,0.582135 -0.62094,0.582135 H 126.3739 q 0.34928,0.310471 0.73737,0.73737 1.12546,1.125461 1.51355,1.707595 0,0.465708 -0.38809,0.543326 h -5.31683 v 2.949483 h 1.82402 q 1.08665,-1.086652 1.55236,-1.591168 0.34928,-0.504517 0.73737,-0.698562 0.34928,0.194045 1.39712,1.241887 0.97023,1.047843 1.35832,1.513551 0,0.465707 -0.4269,0.543325 h -1.59117 v 10.129145 q 0.19405,2.716629 0.19405,6.558718 0,0.931416 -2.48378,1.047843 -1.90164,0 -1.90164,-0.659753 0.11643,-1.629977 0.11643,-5.394449 -3.0271,1.668787 -8.03346,2.949483 0,0.38809 -0.0388,0.931416 -0.0776,0.34928 -0.38809,0.34928 -0.31047,0 -1.86283,-5.045167 1.12546,0 2.21211,-0.03881 V 74.741702 q -0.50452,0.03881 -0.8538,0.155236 -0.19404,-0.465708 -0.38809,-0.776179 v 1.047842 q -0.0388,6.248246 -0.62094,8.111078 -0.58213,2.677819 -1.78521,4.424224 -1.86283,2.949482 -4.07495,4.19137 -0.27166,-0.349281 -0.50451,-0.659753 1.97926,-4.152561 1.97926,-16.80429 v -6.131819 q 0,-2.095685 -0.19405,-3.764471 l 5.23921,1.862831 h 22.39279 q 0.62094,-0.77618 1.55236,-1.824022 h -0.11643 q -1.90164,0 -2.1345,-0.465708 v -0.310472 z m -12.65173,9.702246 v -2.910674 q -2.17331,0.07762 -3.29877,0.271663 -0.31047,-0.853798 -0.81498,-1.591168 1.70759,0.155236 5.27802,0.194045 h 3.14353 q 1.20307,-1.16427 1.70759,-1.785214 0.11643,-0.116426 0.11643,-0.116426 h -10.55605 v 5.782538 q 1.62998,0.116427 4.42423,0.155236 z m 1.00903,11.759122 q 2.05688,-0.03881 3.91971,-0.116427 v -2.910674 h -3.91971 z m 0,-4.307797 h 3.91971 v -2.639011 h -3.91971 z m 0,-3.880899 h 3.91971 v -2.561393 h -3.91971 z m 16.29977,-14.553368 v -3.609236 h -4.65707 v 3.609236 z m -5.35564,5.510875 q 5.82135,0.737371 5.82135,1.435933 0,0.582134 -1.47474,0.931415 -0.38809,1.358315 -0.93141,2.522584 h 2.71662 q 0.8538,-1.086651 2.32854,-2.755438 0.23286,-0.232854 0.46571,-0.232854 0.4269,0.155236 0.89261,0.504517 2.75544,2.367348 3.18233,3.06591 -0.11642,0.582135 -0.54332,0.582135 h -1.66879 q -0.46571,2.367348 -0.93141,3.958516 -0.89261,3.842089 -2.48378,6.597527 2.56139,1.90164 5.89897,2.367348 0,0.310472 -0.0776,0.698562 -0.81499,0 -1.39712,0.776179 -0.58214,0.853798 -0.93142,2.561393 -0.34928,0.892607 -0.65975,0.892607 -1.86283,0 -5.20041,-4.152561 -2.94948,3.104718 -7.17966,4.113752 -0.23285,-0.543326 -0.31047,-0.620944 3.49281,-2.561393 5.58849,-6.86919 -1.3195,-3.104719 -1.82402,-7.373707 -1.51355,2.173303 -3.41519,3.570427 -0.27166,-0.310472 -0.34928,-0.310472 2.05688,-4.928741 2.48377,-12.263639 z m 4.3078,13.505526 q 0.62095,-1.90164 1.00904,-3.880898 0.42689,-1.785213 0.58213,-3.570426 h -2.98829 q -0.4269,0.931415 -0.89261,1.707595 1.04784,3.764471 2.28973,5.743729 z m 38.65375,-26.118445 q 4.65708,3.880898 4.65708,4.57946 0,0.38809 -0.46571,0.426899 -1.24189,-0.271663 -1.74641,-0.271663 -3.0271,0.543326 -8.42154,0.814988 v 2.871865 h 8.03345 q 0.89261,-1.086651 2.5614,-2.988291 0.31047,-0.271663 0.62094,-0.349281 0.27166,0.116427 0.89261,0.543325 3.06591,2.67782 3.25995,3.298764 0,0.543326 -0.46571,0.543326 h -14.90264 v 3.41519 h 6.20943 q 2.32854,-1.940449 2.87187,-1.940449 0.4269,0 2.13449,1.358314 1.43593,1.047843 1.43593,1.513551 0,0.543326 -1.04784,1.319505 v 7.063235 q 0,1.125461 0.0388,2.250921 0,1.125461 -2.75544,1.16427 -2.05687,0 -2.25092,-0.504517 v -0.426899 h -6.63633 v 4.036134 h 5.97658 q 0.81499,-0.931415 2.36735,-2.67782 0.31047,-0.271662 0.58213,-0.34928 0.27166,0.116426 0.81499,0.582134 2.79425,2.406157 2.94948,2.988292 0,0.582135 -0.4269,0.582135 h -12.26363 v 4.385415 h 8.38274 q 0.85379,-1.009034 2.48377,-2.910674 0.34928,-0.349281 0.62094,-0.426899 0.34929,0.116427 0.93142,0.620944 3.06591,2.639011 3.22115,3.298764 0,0.504516 -0.4269,0.504516 h -28.0977 q -5.66611,0.07762 -7.06323,0.38809 -0.38809,-0.970224 -0.77618,-1.90164 2.28973,0.426899 7.87822,0.426899 h 7.52894 v -4.385415 h -5.08397 q -5.5885,0.07762 -7.02443,0.349281 -0.34928,-1.009034 -0.73737,-1.862832 2.25092,0.38809 7.80061,0.38809 h 5.04516 v -4.036134 h -6.59752 v 0.582135 q -0.0388,0.931415 -2.44497,1.047842 -2.48377,0 -2.6002,-0.620943 0.15524,-1.397124 0.15524,-3.686854 v -7.490134 q -0.0776,-1.979258 -0.15524,-3.376381 l 4.42422,1.746404 h 7.21847 v -3.41519 h -7.17966 q -5.58849,0.116427 -6.98561,0.426899 -0.38809,-1.047843 -0.81499,-1.901641 2.32854,0.426899 7.83941,0.426899 h 7.14085 v -2.67782 q -5.08397,0.155236 -11.56507,0.155236 0,-0.155236 -0.11643,-0.853797 18.1238,-1.785214 22.97492,-5.045168 z m -17.89094,23.440626 h 6.59752 v -4.307798 h -6.59752 z m 11.91436,-4.307798 v 4.307798 h 6.63633 v -4.307798 z m -11.91436,-1.203078 h 6.59752 v -3.919707 h -6.59752 z m 11.91436,-3.919707 v 3.919707 h 6.63633 V 69.424872 Z M 218.04074,56.50148 q 0.31047,0.116427 0.8926,0.620944 3.06591,2.639011 3.22115,3.298764 0,0.504516 -0.46571,0.504516 h -14.55337 v 2.716629 h 6.01539 q 2.09569,-1.785213 2.67782,-1.785213 0.38809,0 1.97926,1.241888 1.31951,0.970224 1.31951,1.397123 0,0.543326 -1.12546,1.241887 v 3.337573 q 0.0388,0.504517 0.0388,1.047842 0,1.047843 -2.5614,1.086652 -1.90164,0 -2.09568,-0.465708 v -0.659753 h -6.24825 v 3.104719 h 6.55872 q 2.40616,-1.707595 2.71663,-1.707595 0.65975,0 2.13449,1.164269 1.55236,1.047843 1.55236,1.513551 0,0.582134 -1.3195,1.319505 v 2.367348 h 0.11642 q 1.47474,-2.910674 1.94045,-2.910674 0.31047,0.194045 1.2807,1.862831 0.77618,0.970225 0.77618,1.668787 0,0.465707 -0.38809,0.465707 h -3.72566 v 3.298764 q 0.15523,1.90164 0.15523,3.104719 -0.27166,1.009033 -2.52258,1.086651 -2.1345,0 -2.21211,-0.504517 V 83.97824 h -7.02443 v 1.90164 q 0,6.093011 -5.51087,6.093011 -0.93142,-0.07762 -0.93142,-2.018067 -0.27166,-1.009034 -0.93142,-1.707596 -0.73737,-0.853797 -2.87186,-1.241887 0,-0.310472 -0.0776,-0.970225 1.59117,0.155236 4.42423,0.310472 0.97022,0 0.97022,-1.12546 V 83.97824 q -8.34393,0.07762 -11.75912,0.232854 -0.38809,-0.853797 -0.65975,-1.668786 3.06591,0.232854 12.41887,0.310472 v -3.919708 h -8.73202 q -5.1616,0 -6.09301,0.194045 -0.46571,-0.892606 -0.81499,-1.707595 1.7464,0.426899 7.68418,0.426899 h 7.95584 v -3.570426 h -3.22115 q -5.78253,0 -7.95584,0.271662 -0.31047,-0.73737 -0.65975,-1.707595 2.40616,0.349281 9.66344,0.349281 h 2.1733 v -3.104719 h -6.17063 v 0.620944 q -0.0388,0.931416 -2.48377,1.047843 -2.44497,0 -2.52259,-0.620944 0.11643,-1.397123 0.11643,-3.686853 v -3.84209 q -0.0388,-1.047842 -0.11643,-1.746404 l 4.61827,1.785213 h 6.55872 v -2.716629 h -7.49013 q -5.66612,0.07762 -7.02443,0.38809 -0.4269,-0.970224 -0.81499,-1.90164 2.32854,0.426899 7.87823,0.426899 h 7.45132 q -0.0776,-2.522584 -0.31047,-4.036134 3.10472,0.504517 5.93777,0.970224 0.65976,0.310472 0.65976,0.543326 0,0.38809 -1.00904,0.698562 -0.27166,0.271663 -0.38809,0.271663 v 1.552359 h 7.72299 q 0.89261,-1.009034 2.56139,-2.910674 0.31047,-0.349281 0.62095,-0.426899 z m -4.65708,12.341257 v -4.074943 h -6.24825 v 4.074943 z m -11.13818,0 v -4.074943 h -6.17063 v 4.074943 z m 4.88993,5.433258 v 3.570426 h 7.06324 v -3.570426 z m 0,4.657077 0.0388,3.919708 h 7.02443 v -3.919708 z m 40.12849,-22.85849 q 6.908,0.970224 6.9468,1.552359 0,0.853798 -1.66878,1.241887 -0.62095,3.182337 -1.59117,5.860157 h 4.7347 q 0.8926,-1.203079 2.48377,-2.988292 0.27166,-0.349281 0.46571,-0.349281 0.46571,0.194045 0.97022,0.620944 2.98829,2.522584 3.454,3.298764 -0.11642,0.582134 -0.54332,0.582134 h -2.63901 q -0.62095,5.588494 -1.47475,7.917033 -1.24188,5.045168 -3.29876,8.615594 3.53162,2.988292 8.14989,3.725662 0,0.426899 -0.11643,0.853798 -0.93142,0.03881 -1.59117,0.892607 -0.65975,1.009033 -1.08665,2.988291 -0.4269,1.047843 -0.77618,1.047843 -2.44497,0 -7.06323,-5.782539 -0.0388,-0.03881 -0.0388,-0.03881 -4.81232,5.588494 -12.57411,5.821348 0,-0.194045 -0.11643,-0.620944 6.86919,-2.871865 10.47842,-9.120111 -1.90164,-4.424224 -2.67781,-10.827706 -1.31951,1.979258 -2.83306,3.453999 0.0776,0.232854 0.0776,0.310472 0,0.543326 -1.04785,1.319506 v 8.848448 q 0,1.435932 0.0388,2.794246 0,1.16427 -2.75543,1.203079 -2.05688,0 -2.25093,-0.504517 V 87.39343 h -5.97658 v 2.018067 q -0.0388,0.892606 -2.48377,1.047842 -2.44497,0 -2.5614,-0.582134 0.15524,-1.397124 0.15524,-3.725663 v -9.236538 q -0.0776,-2.444966 -0.15524,-4.19137 l 4.57946,1.785213 h 1.00904 v -8.188695 q -5.20041,0.07762 -6.51991,0.426899 -0.38809,-1.047843 -0.73737,-1.940449 2.13449,0.426899 7.25728,0.465708 v -5.937775 q 0,-2.600202 -0.23286,-3.453999 6.59753,0.582134 6.59753,1.397123 0,0.38809 -0.34928,0.504517 -0.93142,0.349281 -1.00903,0.892606 v 6.597528 h 0.0388 q 0.8926,-1.086652 2.56139,-2.988292 0.31047,-0.271663 0.62094,-0.349281 0.27166,0.116427 0.93142,0.582135 3.06591,2.639011 3.22114,3.259954 0,0.543326 -0.50451,0.543326 h -6.86919 v 8.188695 q 2.32854,-2.250921 2.87186,-2.250921 0.4269,0 2.13449,1.397124 0.27167,0.194045 0.50452,0.349281 2.6002,-7.490134 3.25996,-17.92975 z m 1.3195,13.854806 q 1.47474,6.093011 3.33757,9.042493 1.39713,-3.531617 2.01807,-7.839414 0.46571,-2.794247 0.50452,-5.239213 h -3.91971 q -0.89261,2.173303 -1.94045,4.036134 z m -9.66344,16.222155 V 75.673118 h -5.97658 v 10.478425 z"
         id="path8" /><path
         d="m 50.77402,103.64663 q 6.325864,0.50452 6.325864,4.38542 0,2.56139 -2.871864,2.56139 -0.737371,0 -1.435933,-0.58213 -0.582135,-0.97023 -0.582135,-2.28973 -0.116427,-1.12546 -0.388089,-1.74641 -0.38809,-1.04784 -1.474742,-1.82402 0.155236,-0.34928 0.426899,-0.50452 z m 8.499167,4.11376 q 0.504517,0.27166 1.90164,1.66878 1.435933,1.43594 1.94045,2.17331 0,0.42689 -0.38809,0.50451 h -9.857482 q -2.988292,0.11643 -4.268988,0.34928 -0.38809,-0.85379 -0.853798,-1.59116 1.668787,0.19404 5.239213,0.23285 h 3.143528 q 1.552359,-1.62998 2.134494,-2.44497 0.543325,-0.58213 1.009033,-0.8926 z m -0.814988,5.66611 q 0.426898,0.23285 1.629977,1.47474 1.203078,1.24189 1.668786,1.82402 0,0.46571 -0.426899,0.54333 h -6.946808 q -2.988291,0.11642 -4.307797,0.38809 -0.349281,-0.89261 -0.814988,-1.59117 1.668786,0.15524 5.239212,0.19404 h 1.203079 q 1.358314,-1.35831 1.862831,-2.01806 0.426899,-0.54333 0.892607,-0.81499 z m 0,5.31683 q 0.426898,0.23285 1.629977,1.43593 1.203078,1.2807 1.668786,1.86283 0,0.46571 -0.426899,0.58214 H 54.5773 q -2.988291,0.11642 -4.268988,0.34928 -0.38809,-0.93142 -0.853797,-1.59117 1.668786,0.15524 5.239212,0.19404 h 1.009034 q 1.358314,-1.35831 1.862831,-2.01806 0.426899,-0.54333 0.892607,-0.81499 z m -9.003684,7.02442 3.997325,1.55236 h 2.871865 q 2.134494,-1.94044 2.677819,-1.94044 0.38809,0 1.94045,1.28069 1.358314,0.97023 1.358314,1.39712 0,0.50452 -1.009034,1.24189 v 6.32587 q 0.03881,1.04784 0.07762,2.05687 0,1.04785 -2.522584,1.08665 -1.90164,0 -2.095685,-0.4657 v -1.66879 h -2.600201 v 2.05688 q -0.03881,0.85379 -2.28973,1.00903 -2.28973,0 -2.406157,-0.62094 0.116427,-1.24189 0.116427,-3.41519 v -6.83039 q -0.03881,-1.78521 -0.116427,-3.06591 z m 4.695887,9.58582 h 2.600201 v -6.86919 h -2.600201 z m 25.342265,-29.8441 q 0.232854,0.0776 0.77618,0.4657 2.561393,2.28973 2.67782,2.79425 0,0.58214 -0.465708,0.58214 h -7.179662 v 3.10471 h 0.698562 q 0.77618,-0.81498 2.134494,-2.40615 0.310472,-0.23286 0.543326,-0.27167 0.271663,0.0776 0.776179,0.46571 2.561393,2.21211 2.716629,2.79425 0,0.50452 -0.465708,0.50452 h -6.403482 v 3.57042 h 1.862831 q 0.814989,-0.93141 2.328539,-2.63901 0.310472,-0.31047 0.620944,-0.38809 0.271663,0.0776 0.814989,0.54333 2.833055,2.44496 2.988291,3.06591 0,0.54332 -0.465707,0.54332 H 69.86804 q -5.588494,0.0388 -7.024426,0.34928 -0.349281,-0.97022 -0.737371,-1.90164 2.250921,0.4269 7.800606,0.4269 h 0.426898 v -3.53162 q -4.307797,0.0776 -5.510875,0.34929 -0.38809,-0.97023 -0.737371,-1.90165 1.940449,0.34929 6.248246,0.4269 v -3.10471 q -5.200403,0.0776 -6.519909,0.38808 -0.38809,-1.04784 -0.814988,-1.90164 2.212112,0.38809 7.334897,0.4269 v -2.09568 q 0,-1.94045 -0.232854,-2.56139 6.597528,0.58213 6.597528,1.39712 0,0.38809 -0.38809,0.50452 -0.892607,0.34928 -1.009034,0.8926 v 1.86283 h 1.552359 q 0.698562,-0.8926 2.095686,-2.44496 0.310471,-0.23286 0.543325,-0.31047 z m -15.174312,14.2817 4.074943,1.55236 h 8.227505 q 2.134494,-1.66879 2.561392,-1.66879 0.426899,0 2.095686,0.93142 1.629977,1.24189 1.629977,1.66879 0,0.4657 -0.77618,0.8926 -0.38809,0.38809 -0.38809,0.73737 l -0.03881,10.55605 q 0,5.23921 -5.394448,5.58849 -0.465708,-0.0776 -0.465708,-1.59117 0,-1.86283 -1.203079,-2.67782 -0.73737,-0.58213 -2.018067,-0.93141 0.07762,-0.58214 0.271663,-0.65976 1.125461,0.27167 3.221146,0.27167 1.009033,0 1.009033,-1.47474 v -1.55236 h -8.111077 v 7.56775 q -0.03881,0.8538 -2.28973,0.97022 -2.28973,0 -2.406157,-0.54332 0.116427,-1.2807 0.116427,-3.41519 v -11.2158 q -0.03881,-2.91067 -0.116426,-5.00636 z m 4.695887,10.362 h 8.111077 v -3.41519 h -8.111077 z m 0,-4.65708 h 8.111077 v -3.10472 h -8.111077 z m 31.396468,-21.69422 q 7.56775,0 7.7618,4.77351 0,1.82402 -0.89261,2.56139 -0.65975,0.69856 -1.94045,0.69856 -2.05688,-0.0388 -2.13449,-2.79425 -0.58214,-3.41519 -3.0271,-4.61827 0.15523,-0.4657 0.23285,-0.62094 z m 17.19238,4.65708 q 0.34928,0.0776 1.08665,0.62094 3.53162,3.06591 3.72566,3.84209 0,0.50452 -0.4269,0.50452 H 96.762665 q -5.666112,0.0776 -7.063235,0.38809 -0.38809,-0.97023 -0.737371,-1.90164 2.250921,0.4269 7.839415,0.4269 h 17.153566 q 1.04785,-1.20308 2.94949,-3.49281 0.34928,-0.31047 0.69856,-0.38809 z m 1.35831,24.06157 q 0.34928,0.11642 1.08665,0.65975 3.53162,3.06591 3.72567,3.76447 0,0.58214 -0.4269,0.58214 H 95.055069 q -5.666111,0.0776 -7.063234,0.38809 -0.38809,-1.04785 -0.737371,-1.90164 2.250921,0.4269 7.839414,0.4269 H 107.2799 q -0.15524,-0.11643 -0.19405,-0.11643 2.79425,-8.46036 3.41519,-20.91804 7.91704,1.04784 7.91704,1.94045 0,0.81498 -2.01807,1.24188 -2.87186,12.14721 -8.61559,17.85214 h 7.56775 q 1.00903,-1.2807 2.91067,-3.49281 0.38809,-0.34928 0.69856,-0.4269 z M 95.326732,116.33717 q 7.334898,5.82135 7.684178,12.5353 -0.15524,2.60021 -0.97022,3.22115 -0.89261,0.97022 -2.833059,0.97022 -1.824023,-0.0388 -1.824023,-5.00636 -0.194045,-7.49013 -2.600201,-11.06056 0.194044,-0.19404 0.543325,-0.65975 z m 51.926418,-11.37103 4.88993,1.86283 h 4.11376 q 2.25092,-2.09568 2.75543,-2.09568 0.50452,0 2.25092,1.04784 1.74641,1.3195 1.74641,1.78521 0,0.50452 -0.8538,0.97023 -0.4269,0.4269 -0.4269,0.81499 l -0.0388,20.7628 q 0,4.81231 -5.43325,5.12279 -0.46571,-0.0776 -0.46571,-1.43594 0,-1.7464 -1.08665,-2.44496 -0.73737,-0.58214 -1.90164,-0.89261 0.0776,-0.54332 0.23285,-0.58213 0.93142,0.23285 2.63901,0.23285 1.08665,0 1.08665,-1.35831 v -20.80162 h -4.46303 v 30.93076 q -0.0388,0.89261 -2.44497,1.04784 -2.48377,0 -2.6002,-0.62094 0.15524,-1.35831 0.15524,-3.68685 v -21.18971 q -0.0776,-5.51087 -0.15524,-9.46939 z m -17.96856,-0.11643 q 2.75544,1.00904 4.92874,2.01807 h 5.20041 q 2.32854,-2.1733 2.87186,-2.1733 0.4269,0 2.1345,1.39712 1.43593,0.97023 1.43593,1.43593 0,0.62095 -1.08665,1.35832 v 10.98294 q 0.0388,1.7464 0.0776,3.49281 0,1.16427 -2.75543,1.20308 -2.05688,0 -2.25092,-0.58214 v -0.93141 h -5.20041 v 8.46035 q 2.83306,-0.31047 5.6273,-0.8926 -0.81498,-2.36735 -2.63901,-3.95852 0.34928,-0.11643 0.4269,-0.50452 7.37371,1.59117 7.72299,6.13182 0,1.97926 -0.8538,2.79425 -0.54332,0.97023 -2.1733,1.2807 -1.35832,-0.0776 -2.09569,-4.23018 0,-0.11643 -0.0388,-0.15524 -3.57043,2.83306 -9.50821,4.88993 -0.11642,1.94045 -0.77618,2.32854 -0.81498,0 -1.35831,-1.82402 -0.77618,-2.94948 -1.86283,-5.35564 1.3195,0 2.63901,-0.0776 l -0.0388,-22.50921 q 0,-1.66878 -0.4269,-4.57946 z m 5.35564,16.92072 h 5.20041 v -6.4811 h -5.20041 z m 0,-7.72299 h 5.20041 v -5.97658 h -5.20041 z m 65.54837,-4.61827 q 0.34928,0.15524 0.77618,0.46571 2.32854,1.97926 2.67782,2.52258 -0.11643,0.65976 -0.54333,0.65976 h -5.00636 v 6.09301 q 1.74641,-2.5614 2.28973,-2.5614 0.4269,0.15524 1.7076,1.7076 1.00903,0.97022 1.00903,1.59117 0,0.4269 -0.38809,0.4269 h -4.61827 v 6.71395 q 1.66879,-2.56139 2.21212,-2.56139 0.34928,0.15523 1.55236,1.70759 0.93141,0.89261 0.93141,1.55236 0,0.46571 -0.4269,0.46571 h -4.26899 v 7.80061 h 0.15524 q 1.82402,-3.72567 2.36735,-3.72567 0.4269,0.27167 1.70759,2.28973 0.97023,1.20308 0.97023,1.97926 0,0.46571 -0.34928,0.46571 h -10.90533 q 0.0776,0.89261 0.0776,1.7464 0,1.24189 -2.48377,1.24189 -1.7076,0 -1.78522,-0.65975 0.0388,-0.77618 0.0388,-2.6002 v -19.63735 q -0.8538,1.2807 -1.78521,2.40616 -0.27166,-0.31047 -0.50452,-0.31047 v 1.94045 q -0.4269,1.08665 -2.36735,1.08665 -1.70759,0 -1.70759,-0.69856 v -0.69857 h -2.48378 v 3.60924 h 2.75544 q 1.90164,-1.86283 2.21211,-1.86283 0.65976,0.0776 1.97926,0.97022 1.62998,1.16427 1.62998,1.55236 0,0.58214 -1.04784,1.00904 -0.34928,0.34928 -0.34928,0.77618 v 8.34393 q 0,3.80328 -4.7347,4.54065 -0.65975,0 -0.65975,-1.00904 -0.19405,-2.1733 -0.97023,-2.56139 -0.65975,-0.50452 -2.21211,-0.81499 0,-0.31047 0.11643,-0.65975 1.97926,0.23285 3.64804,0.23285 0.69856,0 0.73737,-0.8926 v -0.34928 q -0.4657,0.27166 -1.16427,0.27166 -1.12546,0 -1.20307,-1.20308 0,-0.27166 0.15523,-0.93141 0.0776,-0.15524 0.0776,-0.34929 -1.90164,1.51355 -5.27802,2.75544 -0.0388,1.00904 -0.54333,1.12546 -0.38809,0 -0.65975,-1.39712 -0.50452,-1.43593 -0.93142,-3.68685 0.11643,5.97658 0.19405,8.26631 -0.23286,1.3195 -3.10472,1.3195 -1.43593,0 -1.43593,-0.85379 0.11642,-2.40616 0.11642,-10.55605 l 0.0388,-2.28973 v -0.58213 q -0.4657,0.0388 -0.8926,0.0776 -0.31048,-0.77618 -0.65976,-1.59117 0.62095,0.15523 1.51355,0.23285 -0.0388,-1.39712 -0.19404,-2.48377 5.39445,0.50451 5.39445,1.35831 0,0.31047 -0.23286,0.54333 -0.73737,0.27166 -0.77618,0.58213 v 0.11643 h 2.71663 v -3.60924 h -2.28973 q -0.54332,0.89261 -2.28973,0.89261 -1.70759,0 -1.70759,-0.69856 v -8.84845 q -0.0776,-1.08665 -0.0776,-2.21211 5.31683,0.65975 5.31683,1.43593 0,0.11643 0,0.11643 1.39712,0.54332 2.44497,1.04784 0.69856,-1.43593 1.04784,-2.87186 2.63901,0.81498 3.72566,1.3195 0,-0.46571 -0.0388,-0.93141 5.31683,0.65975 5.31683,1.43593 0,0.38809 -0.27166,0.4269 -0.69856,0.34928 -0.8538,0.62094 v 6.36467 q 2.21211,-6.40348 3.10472,-15.71763 5.1616,1.86283 5.31683,2.32853 -0.0388,0.69857 -1.39712,0.77618 -0.73737,2.94949 -1.86283,5.54969 h 7.10204 q 0.73737,-0.93142 1.97926,-2.21211 0.19404,-0.23286 0.34928,-0.23286 z m -24.41085,4.7347 q -0.77618,-1.20308 -2.05688,-2.21211 -0.50451,0.27166 -0.62094,0.50451 v 5.23922 q 1.62998,-1.82403 2.67782,-3.53162 z m 5.74373,-2.21211 h -0.65975 q -0.69857,1.28069 -1.51355,2.28973 1.51355,1.28069 1.70759,2.48377 0,1.7076 -0.89261,2.01807 -0.34928,0.19404 -1.12546,0.23285 -1.66878,0 -2.1733,-2.28973 -1.70759,1.31951 -3.76447,1.78522 v 1.16427 h 8.42155 z m 10.51723,1.12546 v 6.24824 h 2.28973 v -6.24824 z m 0,7.25728 v 6.79157 h 2.28973 v -6.79157 z m 0,7.87822 v 7.80061 h 2.28973 v -7.80061 z m 2.52259,-24.48847 q 3.95851,2.21211 4.07494,4.85113 0,2.6002 -2.01807,2.63901 -2.1733,0 -2.1733,-1.86283 0.0776,-0.34929 0.19405,-1.35832 0.11642,-0.69856 0.11642,-1.24189 0,-1.62997 -0.54332,-2.79424 0.19404,-0.0388 0.34928,-0.23286 z m -12.41888,25.76917 v -4.03614 h -3.10472 v 4.88993 q 0.58214,-0.0388 1.00904,-0.11642 -0.0776,-1.55236 -0.62095,-2.44497 0.0776,-0.15523 0.19405,-0.34928 1.7464,0.93142 2.52258,2.05688 z m -6.86919,0.97022 v -5.00636 h -2.71663 v 3.22115 q 0,0.81499 0.0388,1.43593 0.93142,0.31047 2.67782,0.34928 z m 8.92607,-25.26465 q 0.27166,0.0776 0.77618,0.46571 2.52258,2.28973 2.71663,2.79425 0,0.54332 -0.50452,0.54332 H 174.6911 q -5.66611,0.0776 -7.06324,0.4269 -0.38809,-1.04784 -0.77618,-1.94045 2.28973,0.46571 7.87823,0.46571 h 0.8926 q -0.38809,-0.50452 -0.54332,-1.16427 -0.54333,-2.01806 -2.32854,-2.67782 0.11643,-0.19404 0.15524,-0.4269 1.08665,-0.0388 1.43593,-0.0388 2.40615,0 3.80328,0.65976 1.20308,0.73737 1.20308,2.13449 0,1.04784 -0.58214,1.51355 h 2.75544 q 0.73737,-0.8926 2.13449,-2.44496 0.27167,-0.23286 0.54333,-0.31048 z m 24.52728,-1.35831 4.3078,1.66879 h 5.51087 q 2.1345,-1.86284 2.67782,-1.86284 0.38809,0 1.94045,1.2807 1.35832,0.93142 1.35832,1.39712 0,0.54333 -1.43594,1.20308 v 6.79157 q 0,1.04785 0.0388,2.1345 0,1.04784 -2.56139,1.08665 -1.90164,0 -2.09569,-0.50452 v -1.04784 h -5.08397 v 22.74207 q 0,0.85379 -2.25092,1.00903 -2.32854,0 -2.40616,-0.58214 0.11643,-1.28069 0.11643,-3.454 v -22.00469 q -0.0388,-5.70492 -0.11643,-9.85748 z m 4.65708,10.90532 h 5.08397 v -3.68685 h -5.08397 z m 0,-4.92874 h 5.08397 v -3.10472 h -5.08397 z m 12.61292,-6.01539 4.38541,1.7076 h 5.43326 q 2.09569,-1.90164 2.56139,-1.90164 0.4269,0 2.09569,1.00903 1.59117,1.20308 1.59117,1.66879 0,0.42689 -0.73737,0.85379 -0.38809,0.38809 -0.38809,0.77618 l -0.0388,26.19607 q 0,5.31683 -6.0542,5.6273 -0.46571,-0.0776 -0.46571,-1.55236 0,-1.90164 -1.2807,-2.71663 -0.73737,-0.58213 -2.05687,-0.93142 0.0388,-0.62094 0.23285,-0.65975 1.43593,0.23286 3.99732,0.23286 1.04785,0 1.04785,-1.39713 v -16.72667 h -5.62731 v 0.34928 q -0.0388,0.81499 -2.28973,0.93142 -2.28973,0 -2.40615,-0.54333 0.15523,-1.28069 0.15523,-3.454 v -6.51991 q -0.0776,-1.70759 -0.15523,-2.94948 z m 4.69588,10.94413 h 5.62731 v -3.68685 h -5.62731 z m 0,-4.92874 h 5.62731 v -3.18233 h -5.62731 z m 0.8538,7.06324 q 0.27166,0.0776 0.77618,0.46571 2.56139,2.28973 2.67782,2.79424 0,0.54333 -0.4269,0.54333 h -4.42422 v 5.97658 h 0.19404 q 1.62998,-2.98829 2.1345,-3.25995 0.23285,0 0.50451,0.0776 0.8538,0.93142 1.7076,1.97926 0.97022,1.08665 0.97022,1.78522 0,0.50451 -0.42689,0.50451 h -5.08398 v 2.40616 q 0.19404,2.94948 0.19404,7.14085 0,1.00904 -2.63901,1.16427 -2.13449,0 -2.13449,-0.73737 0.15523,-2.21211 0.15523,-7.8006 V 127.747 h -2.79424 q -0.19405,2.71663 -0.58214,3.64805 -0.54332,1.70759 -1.66878,2.98829 -2.71663,3.29876 -6.79158,4.03613 -0.19404,-0.34928 -0.23285,-0.4269 2.6002,-1.78521 3.64805,-4.96755 0.85379,-1.82402 1.08665,-5.27802 -3.22115,0.0776 -3.84209,0.23286 -0.46571,-0.97023 -0.89261,-1.7076 1.31951,0.27166 4.81231,0.34928 0.0776,-1.28069 0.0776,-2.67782 v -3.18233 q -2.44496,0.11642 -3.29876,0.34928 -0.38809,-1.04785 -0.73737,-1.94045 2.25092,0.46571 7.83941,0.46571 h 6.51991 q 0.73737,-0.89261 2.17331,-2.44497 0.27166,-0.23285 0.50451,-0.31047 z m -8.49917,3.80328 v 2.09568 q 0,2.21212 -0.0776,3.8809 h 2.75543 v -5.97658 z m 54.37139,-12.76816 q 0.31048,0.0776 0.93142,0.58214 3.29876,2.87186 3.49281,3.53161 0,0.54333 -0.46571,0.54333 h -12.03078 q 1.00903,4.50184 4.96754,8.42155 4.26899,3.99733 8.6156,4.61827 -0.0388,0.69856 -0.11643,0.73737 -0.93141,0.0388 -1.51355,0.89261 -0.58213,1.00903 -1.35831,3.41519 -0.27167,1.24188 -0.77618,1.3195 -4.15256,-1.3195 -8.30512,-9.0813 -1.62998,-3.18234 -2.67782,-10.32319 h -1.04785 v 13.23386 q 0.0388,2.36735 0.0776,4.23018 h 0.54333 q 1.82402,-3.41519 2.32854,-3.72566 0.31047,0 0.62094,0.0776 0.97022,1.00903 1.94045,2.25092 1.16427,1.20308 1.16427,1.97926 0,0.50451 -0.4269,0.50451 h -6.13182 q 0.0776,4.88994 0.11643,7.10205 -0.23286,1.62998 -3.8809,1.62998 -1.82402,0 -1.82402,-1.04785 0.11642,-2.09568 0.15523,-7.68418 -5.66611,0 -6.55872,0.23286 -0.4657,-0.97023 -0.81498,-1.7076 1.70759,0.38809 7.3737,0.38809 v -4.46303 l 0.0388,-10.47843 q -0.23285,0.65976 -0.4269,1.08666 -3.41519,10.67247 -14.55337,17.34761 -0.0776,0 -0.50451,-0.50452 7.8006,-9.04249 9.9351,-18.04617 0.4269,-1.24189 0.58213,-2.40616 h -1.94045 q -5.58849,0.11643 -7.02442,0.4269 -0.34928,-1.04784 -0.73737,-1.90164 2.25092,0.4269 7.8006,0.4269 h 6.86919 v -2.48378 q 0,-3.25995 -0.27166,-5.43325 6.75276,0.62094 6.75276,1.70759 0,0.38809 -0.31047,0.65975 -0.8538,0.38809 -0.89261,0.73737 v 4.81232 h 6.86919 q 0.89261,-1.16427 2.67782,-3.22115 0.38809,-0.34928 0.73737,-0.38809 z m 13.001,-4.42422 q 6.13182,1.70759 6.59753,4.26899 0,1.90164 -0.77618,2.79424 -0.46571,0.8538 -2.1345,0.8538 -1.97925,-0.0388 -1.97925,-3.0271 0,-2.79425 -2.1345,-4.54065 z m 9.89629,5.43326 q 0.46571,0.23285 1.78522,1.55236 1.28069,1.39712 1.78521,2.01806 0,0.50452 -0.38809,0.58214 h -12.41888 q -2.98829,0.11642 -4.30779,0.31047 -0.34928,-0.89261 -0.77618,-1.59117 1.62997,0.15524 5.2004,0.19405 h 6.17063 q 1.43593,-1.47475 1.97926,-2.17331 0.46571,-0.62094 0.97022,-0.8926 z m -3.84209,5.23921 q 6.79157,2.01807 6.79157,2.67782 0,0.54332 -1.97925,0.89261 -1.35832,7.02442 -4.26899,12.38006 3.22114,-0.54332 5.51087,-1.24189 v -3.06591 q -0.0776,-2.56139 -0.15523,-4.38541 l 4.50184,1.70759 h 1.62998 v -15.83406 q 0,-2.67782 -0.27167,-3.57043 6.59753,0.58214 6.59753,1.39713 0,0.38809 -0.34928,0.50451 -0.89261,0.31047 -1.00903,0.89261 v 6.40348 h 1.82402 q 0.89261,-1.28069 2.48377,-3.06591 0.27167,-0.27166 0.46571,-0.27166 0.46571,0.19404 0.97023,0.58213 2.98829,2.5614 3.454,3.25996 -0.11643,0.62094 -0.54333,0.62094 h -8.6544 v 9.0813 h 1.43593 q 2.32854,-2.13449 2.87186,-2.13449 0.4269,0 2.1345,1.35831 1.43593,1.00904 1.43593,1.47475 0,0.62094 -0.97022,1.35831 v 10.20676 q 0.0388,1.62998 0.0776,3.29877 0,1.16427 -2.75543,1.20307 -2.05688,0 -2.25092,-0.54332 v -3.06591 h -8.03346 v 2.71663 q -0.0388,0.8926 -2.48378,1.04784 -2.44497,0 -2.56139,-0.62094 0.15523,-1.35832 0.15523,-3.68686 v -6.01539 q -4.61827,3.64805 -12.80696,6.36467 -0.0388,1.59117 -0.50452,1.59117 -0.31047,0 -1.20308,-1.59117 -0.73737,-1.51355 -2.05687,-4.73469 5.23921,-0.34928 9.27535,-0.97023 1.00903,-8.14988 1.24188,-16.22215 z m 18.9776,20.84042 v -10.71128 h -8.03346 v 10.71128 z M 288.82831,115.1729 q 5.04517,5.20041 5.20041,10.12915 -0.0388,3.53161 -2.60021,3.72566 -2.01806,0 -2.1733,-2.09569 0,-0.69856 0.15524,-2.05687 0.11642,-1.00904 0.19404,-3.06591 -0.34928,-4.85112 -1.43593,-6.40348 0.34928,-0.15524 0.65975,-0.23286 z"
         id="path9" /></g><g
       id="text3"
       style="font-size:33.1196px;line-height:1.15;font-family:DFLiSong-Bd;-inkscape-font-specification:DFLiSong-Bd;text-align:center;letter-spacing:0px;text-anchor:middle;display:inline;opacity:0.98817;fill:#ffffff;stroke-width:0.869277;stroke-linecap:square"
       aria-label="Serious incident&#10;Please leave the station&#10;immediately">
      <animate
        attributeName="opacity"
        values="1;0"
        dur="0.4s"
        repeatCount="indefinite"
        calcMode="discrete"
        />
      <path
         style="font-weight:600;font-family:'Myriad Pro';-inkscape-font-specification:'Myriad Pro Semi-Bold';stroke-width:0.869279"
         d="m 71.243748,186.45806 0.927349,-3.3782 q 2.417731,1.42414 5.398494,1.42414 1.920937,0 2.980764,-0.82799 1.059827,-0.82799 1.059827,-2.21901 0,-1.25855 -0.927348,-2.08654 -0.89423,-0.82799 -3.013884,-1.62286 -6.060886,-2.15277 -6.060886,-6.49144 0,-2.81517 2.152774,-4.60362 2.185893,-1.82158 5.76281,-1.82158 3.146362,0 5.332255,1.12606 l -0.960468,3.27884 q -2.053415,-1.05982 -4.471146,-1.05982 -1.821578,0 -2.748927,0.79487 -0.927349,0.79487 -0.927349,1.88782 0,1.22542 0.927349,1.98717 0.960469,0.76175 3.34508,1.6891 2.947644,1.12607 4.338667,2.68269 1.391023,1.55662 1.391023,3.94123 0,2.88141 -2.185893,4.80234 -2.152774,1.92094 -6.259604,1.92094 -1.72222,0 -3.411319,-0.39744 -1.6891,-0.43055 -2.649568,-1.0267 z m 31.894162,-5.86217 H 92.34092 q 0.06624,2.08653 1.457263,3.14636 1.391023,1.02671 3.510677,1.02671 2.351492,0 4.47115,-0.72863 l 0.59615,2.78204 q -2.384612,1.02671 -5.630333,1.02671 -3.874993,0 -6.094006,-2.18589 -2.219013,-2.21902 -2.219013,-5.96153 0,-3.57692 2.086535,-6.12713 2.119654,-2.55021 5.795929,-2.55021 1.854698,0 3.27884,0.72863 1.424148,0.69552 2.185898,1.88782 0.76175,1.19231 1.12606,2.51709 0.36432,1.29167 0.36432,2.71581 0,0.99359 -0.13248,1.72222 z M 92.34092,177.7476 h 7.087594 q 0.03312,-1.45726 -0.76175,-2.68269 -0.761751,-1.25854 -2.583329,-1.25854 -1.722219,0 -2.649568,1.22542 -0.927349,1.22543 -1.092947,2.71581 z m 14.20833,9.77028 v -10.92946 q 0,-3.31196 -0.13247,-5.19978 h 3.51067 l 0.1656,3.047 h 0.0994 q 0.56303,-1.62286 1.78846,-2.51709 1.25854,-0.89423 2.64957,-0.89423 0.46367,0 0.96046,0.0994 v 3.80876 q -0.56303,-0.0994 -1.22542,-0.0994 -1.42414,0 -2.41773,0.82799 -0.96047,0.82799 -1.22543,2.25213 -0.0994,0.52991 -0.0994,1.22542 v 8.37926 z m 15.86432,0 h -4.07371 v -16.12924 h 4.07371 z m -2.0203,-22.85252 q 1.02671,0 1.62286,0.62927 0.62928,0.62928 0.6624,1.58974 0,0.92735 -0.6624,1.55662 -0.62927,0.62928 -1.65598,0.62928 -0.99358,0 -1.62286,-0.62928 -0.62927,-0.62927 -0.62927,-1.55662 0,-0.96046 0.62927,-1.58974 0.66239,-0.62927 1.65598,-0.62927 z m 13.74466,6.35896 q 3.57691,0 5.79593,2.31838 2.21901,2.28525 2.21901,5.96152 0,4.17307 -2.45085,6.39209 -2.45085,2.18589 -5.82905,2.18589 -3.51068,0 -5.79593,-2.25213 -2.28525,-2.25214 -2.28525,-6.06089 0,-3.90811 2.31837,-6.22648 2.31837,-2.31838 6.02777,-2.31838 z m -0.0994,2.94765 q -2.0203,0 -3.04701,1.62286 -0.99358,1.62286 -0.99358,3.87499 0,2.38461 1.09294,3.94123 1.09295,1.5235 2.91453,1.5235 1.75534,0 2.84828,-1.5235 1.09295,-1.55662 1.09295,-4.00747 0,-2.15277 -0.99359,-3.77563 -0.99359,-1.65598 -2.91452,-1.65598 z m 25.89949,-2.58333 v 11.29378 q 0,2.1859 0.13248,4.83546 h -3.5438 l -0.19872,-2.41773 h -0.0994 q -1.72222,2.78205 -5.19978,2.78205 -2.45085,0 -4.04059,-1.65598 -1.55662,-1.6891 -1.55662,-5.36538 v -9.4722 h 4.07371 v 8.77669 q 0,4.40491 3.01388,4.40491 1.15919,0 1.95406,-0.62927 0.82799,-0.6624 1.15918,-1.55662 0.23184,-0.46368 0.23184,-1.25855 v -9.73716 z m 3.41133,15.33437 0.82799,-2.98076 q 1.88782,1.1923 4.10683,1.1923 2.58333,0 2.58333,-1.82157 0,-0.79487 -0.56303,-1.29167 -0.56304,-0.49679 -2.08654,-1.05982 -4.43802,-1.49039 -4.43802,-4.70299 0,-2.18589 1.65598,-3.61003 1.68909,-1.42415 4.43802,-1.42415 2.55021,0 4.30555,0.96047 l -0.82799,2.84829 q -1.55662,-0.92735 -3.41132,-0.92735 -1.05983,0 -1.65598,0.49679 -0.59615,0.46368 -0.59615,1.22543 0,0.72863 0.59615,1.1923 0.59615,0.46368 2.21901,1.05983 2.21902,0.76175 3.24572,1.95406 1.02671,1.15918 1.05983,2.94764 0,2.28525 -1.72222,3.67628 -1.72222,1.39102 -4.83546,1.39102 -2.8814,0 -4.9017,-1.12607 z m 25.73395,0.79487 h -4.07371 v -16.12924 h 4.07371 z m -2.0203,-22.85252 q 1.02671,0 1.62286,0.62927 0.62927,0.62928 0.66239,1.58974 0,0.92735 -0.66239,1.55662 -0.62927,0.62928 -1.65598,0.62928 -0.99359,0 -1.62286,-0.62928 -0.62927,-0.62927 -0.62927,-1.55662 0,-0.96046 0.62927,-1.58974 0.66239,-0.62927 1.65598,-0.62927 z m 6.42522,22.85252 v -11.3269 q 0,-2.02029 -0.13247,-4.80234 h 3.54379 l 0.19872,2.41773 h 0.0994 q 0.62927,-1.12607 1.95406,-1.95406 1.3579,-0.82799 3.2126,-0.82799 2.38461,0 4.04059,1.6891 1.6891,1.6891 1.6891,5.2329 v 9.57156 h -4.07371 v -9.10789 q 0,-1.85469 -0.76175,-2.94764 -0.72863,-1.12607 -2.31838,-1.12607 -1.15918,0 -1.98717,0.69551 -0.82799,0.69552 -1.19231,1.6891 -0.19871,0.4968 -0.19871,1.29167 v 9.50532 z m 30.23821,-3.51067 0.56303,3.01388 q -1.78846,0.82799 -4.5705,0.82799 -3.77564,0 -6.06089,-2.25213 -2.25213,-2.25214 -2.25213,-5.99465 0,-3.74252 2.41773,-6.16025 2.41773,-2.41773 6.55768,-2.41773 2.25213,0 3.94123,0.72863 l -0.72863,3.08013 q -1.25855,-0.62928 -3.08012,-0.62928 -2.28526,0 -3.64316,1.49039 -1.32478,1.49038 -1.29166,3.74251 0,2.41773 1.39102,3.80876 1.39102,1.39102 3.5438,1.39102 1.6891,0 3.2126,-0.62927 z m 7.65061,3.51067 h -4.07371 v -16.12924 h 4.07371 z m -2.0203,-22.85252 q 1.02671,0 1.62286,0.62927 0.62927,0.62928 0.66239,1.58974 0,0.92735 -0.66239,1.55662 -0.62927,0.62928 -1.65598,0.62928 -0.99359,0 -1.62286,-0.62928 -0.62927,-0.62927 -0.62927,-1.55662 0,-0.96046 0.62927,-1.58974 0.66239,-0.62927 1.65598,-0.62927 z m 17.22221,-0.66239 h 4.07371 v 18.97753 q 0,2.35149 0.13248,4.53738 h -3.61003 l -0.19872,-2.55021 h -0.0662 q -0.72863,1.35791 -2.11966,2.15278 -1.39102,0.76175 -3.11324,0.76175 -2.94764,0 -4.93482,-2.28525 -1.98717,-2.28526 -1.98717,-5.96153 -0.0331,-3.90811 2.05341,-6.25961 2.11966,-2.35149 5.16666,-2.35149 1.58974,0 2.78205,0.59616 1.1923,0.56303 1.75533,1.49038 h 0.0662 z m 0,16.52668 v -2.41773 q 0,-0.59616 -0.0994,-1.09295 -0.29807,-1.22542 -1.25854,-2.02029 -0.92735,-0.82799 -2.25213,-0.82799 -1.92094,0 -3.01389,1.49038 -1.05982,1.49038 -1.05982,3.80875 0,2.28525 1.05982,3.7094 1.09295,1.42414 2.98077,1.42414 1.25854,0 2.21901,-0.79487 0.99359,-0.79487 1.29166,-2.08654 0.13248,-0.49679 0.13248,-1.1923 z m 22.12387,0.0662 h -10.79699 q 0.0662,2.08653 1.45726,3.14636 1.39103,1.02671 3.51068,1.02671 2.35149,0 4.47115,-0.72863 l 0.59615,2.78204 q -2.38461,1.02671 -5.63033,1.02671 -3.875,0 -6.09401,-2.18589 -2.21901,-2.21902 -2.21901,-5.96153 0,-3.57692 2.08653,-6.12713 2.11966,-2.55021 5.79593,-2.55021 1.8547,0 3.27884,0.72863 1.42415,0.69552 2.1859,1.88782 0.76175,1.19231 1.12606,2.51709 0.36432,1.29167 0.36432,2.71581 0,0.99359 -0.13248,1.72222 z m -10.79699,-2.84829 h 7.0876 q 0.0331,-1.45726 -0.76176,-2.68269 -0.76175,-1.25854 -2.58332,-1.25854 -1.72222,0 -2.64957,1.22542 -0.92735,1.22543 -1.09295,2.71581 z m 14.20833,9.77028 v -11.3269 q 0,-2.02029 -0.13248,-4.80234 h 3.5438 l 0.19872,2.41773 h 0.0994 q 0.62927,-1.12607 1.95405,-1.95406 1.35791,-0.82799 3.21261,-0.82799 2.38461,0 4.04059,1.6891 1.6891,1.6891 1.6891,5.2329 v 9.57156 h -4.07371 v -9.10789 q 0,-1.85469 -0.76176,-2.94764 -0.72863,-1.12607 -2.31837,-1.12607 -1.15918,0 -1.98717,0.69551 -0.82799,0.69552 -1.19231,1.6891 -0.19872,0.4968 -0.19872,1.29167 v 9.50532 z m 19.44125,-19.14312 4.00747,-1.12607 v 4.13995 h 3.87499 v 3.047 h -3.87499 v 7.12072 q 0,1.5235 0.46368,2.25213 0.49679,0.72863 1.62286,0.72863 0.99358,0 1.58974,-0.1656 l 0.0662,3.08012 q -1.09295,0.43056 -2.94765,0.43056 -2.28525,0 -3.51068,-1.32479 -1.29166,-1.32478 -1.29166,-4.53738 v -7.58439 h -2.28525 v -3.047 h 2.28525 z"
         id="path10" /><path
         style="font-weight:600;font-family:'Myriad Pro';-inkscape-font-specification:'Myriad Pro Semi-Bold';stroke-width:0.869279"
         d="m 19.792487,227.28728 v -22.02454 q 2.616448,-0.46367 6.226484,-0.46367 4.371787,0 6.557681,1.82158 2.185893,1.78845 2.185893,4.93482 0,3.2126 -1.887817,5.03417 -2.45085,2.41774 -7.054475,2.41774 -1.291664,0 -1.987175,-0.1656 v 8.4455 z m 4.040591,-19.14313 v 7.48503 q 0.629272,0.19871 1.987175,0.19871 2.285253,0 3.576917,-1.09294 1.324784,-1.09295 1.324784,-3.01389 0,-1.82157 -1.192305,-2.78204 -1.192306,-0.99359 -3.34508,-0.99359 -1.490382,0 -2.351491,0.19872 z m 14.208298,19.14313 v -23.51492 h 4.073711 v 23.51492 z m 22.19013,-6.922 H 49.434517 q 0.06624,2.08653 1.457263,3.14636 1.391023,1.02671 3.510677,1.02671 2.351492,0 4.471146,-0.72863 l 0.596153,2.78204 q -2.384611,1.02671 -5.630332,1.02671 -3.874993,0 -6.094006,-2.18589 -2.219013,-2.21902 -2.219013,-5.96153 0,-3.57692 2.086534,-6.12713 2.119655,-2.5502 5.79593,-2.5502 1.854698,0 3.27884,0.72863 1.424143,0.69551 2.185894,1.88781 0.761751,1.19231 1.126066,2.51709 0.364316,1.29167 0.364316,2.71581 0,0.99359 -0.132479,1.72222 z m -10.796989,-2.84829 h 7.087594 q 0.03312,-1.45726 -0.76175,-2.68268 -0.761751,-1.25855 -2.583329,-1.25855 -1.722219,0 -2.649568,1.22543 -0.927349,1.22542 -1.092947,2.7158 z m 26.72754,0.0994 v 5.79593 q 0,2.55021 0.264957,3.875 h -3.676275 l -0.298077,-1.78846 h -0.09936 q -1.65598,2.15277 -4.769223,2.15277 -2.318371,0 -3.709395,-1.42414 -1.357903,-1.42414 -1.357903,-3.3782 0,-2.98076 2.517089,-4.53739 2.51709,-1.58974 7.054475,-1.55662 v -0.26495 q 0,-1.09295 -0.695512,-1.95406 -0.695511,-0.86111 -2.583328,-0.86111 -2.450851,0 -4.338668,1.19231 l -0.79487,-2.64957 q 2.318372,-1.42414 5.829049,-1.42414 3.576917,0 5.100418,1.92093 1.556621,1.88782 1.556621,4.9017 z m -3.974351,4.00747 v -2.21901 q -5.630332,-0.0662 -5.630332,3.01388 0,1.12607 0.629272,1.72222 0.662392,0.59616 1.6891,0.59616 1.192305,0 2.020295,-0.62928 0.86111,-0.66239 1.192306,-1.58974 0.09936,-0.29807 0.09936,-0.89423 z m 7.286293,4.86858 0.82799,-2.98076 q 1.887817,1.19231 4.10683,1.19231 2.583329,0 2.583329,-1.82158 0,-0.79487 -0.563033,-1.29167 -0.563034,-0.49679 -2.086535,-1.05982 -4.438026,-1.49038 -4.438026,-4.70299 0,-2.18589 1.65598,-3.61003 1.689099,-1.42414 4.438026,-1.42414 2.550209,0 4.305548,0.96046 l -0.82799,2.84829 q -1.556622,-0.92735 -3.411319,-0.92735 -1.059827,0 -1.65598,0.49679 -0.596153,0.46368 -0.596153,1.22543 0,0.72863 0.596153,1.1923 0.596153,0.46368 2.219013,1.05983 2.219013,0.76175 3.245721,1.95406 1.026707,1.15918 1.059827,2.94764 0,2.28525 -1.722219,3.67628 -1.722219,1.39102 -4.835462,1.39102 -2.881405,0 -4.9017,-1.12607 z m 28.482851,-6.12712 H 97.159859 q 0.06624,2.08653 1.457263,3.14636 1.391018,1.02671 3.510678,1.02671 2.35149,0 4.47114,-0.72863 l 0.59616,2.78204 q -2.38461,1.02671 -5.63033,1.02671 -3.874997,0 -6.09401,-2.18589 -2.219013,-2.21902 -2.219013,-5.96153 0,-3.57692 2.086534,-6.12713 2.119655,-2.5502 5.795929,-2.5502 1.8547,0 3.27884,0.72863 1.42414,0.69551 2.18589,1.88781 0.76176,1.19231 1.12607,2.51709 0.36432,1.29167 0.36432,2.71581 0,0.99359 -0.13248,1.72222 z m -10.796991,-2.84829 h 7.087591 q 0.0331,-1.45726 -0.76175,-2.68268 -0.76175,-1.25855 -2.58333,-1.25855 -1.722215,0 -2.649564,1.22543 -0.927349,1.22542 -1.092947,2.7158 z m 21.064111,9.77029 V 203.7724 h 4.07371 v 23.51492 z m 22.19013,-6.922 h -10.79699 q 0.0662,2.08653 1.45726,3.14636 1.39103,1.02671 3.51068,1.02671 2.35149,0 4.47115,-0.72863 l 0.59615,2.78204 q -2.38461,1.02671 -5.63033,1.02671 -3.87499,0 -6.09401,-2.18589 -2.21901,-2.21902 -2.21901,-5.96153 0,-3.57692 2.08653,-6.12713 2.11966,-2.5502 5.79593,-2.5502 1.8547,0 3.27884,0.72863 1.42415,0.69551 2.1859,1.88781 0.76175,1.19231 1.12606,2.51709 0.36432,1.29167 0.36432,2.71581 0,0.99359 -0.13248,1.72222 z m -10.79699,-2.84829 h 7.0876 q 0.0331,-1.45726 -0.76175,-2.68268 -0.76176,-1.25855 -2.58333,-1.25855 -1.72222,0 -2.64957,1.22543 -0.92735,1.22542 -1.09295,2.7158 z m 26.72754,0.0994 v 5.79593 q 0,2.55021 0.26496,3.875 h -3.67628 l -0.29807,-1.78846 h -0.0994 q -1.65598,2.15277 -4.76922,2.15277 -2.31838,0 -3.7094,-1.42414 -1.3579,-1.42414 -1.3579,-3.3782 0,-2.98076 2.51709,-4.53739 2.51709,-1.58974 7.05447,-1.55662 v -0.26495 q 0,-1.09295 -0.69551,-1.95406 -0.69551,-0.86111 -2.58333,-0.86111 -2.45085,0 -4.33867,1.19231 l -0.79487,-2.64957 q 2.31838,-1.42414 5.82905,-1.42414 3.57692,0 5.10042,1.92093 1.55662,1.88782 1.55662,4.9017 z m -3.97435,4.00747 v -2.21901 q -5.63033,-0.0662 -5.63033,3.01388 0,1.12607 0.62927,1.72222 0.66239,0.59616 1.6891,0.59616 1.19231,0 2.0203,-0.62928 0.86111,-0.66239 1.1923,-1.58974 0.0994,-0.29807 0.0994,-0.89423 z m 6.1271,-10.46579 h 4.40491 l 2.61645,8.18054 q 0.59615,1.82158 1.09295,4.04059 h 0.0994 q 0.3312,-1.42414 1.09295,-4.04059 l 2.58333,-8.18054 h 4.27243 l -6.16025,16.12925 h -4.00747 z m 31.89414,9.20725 h -10.79699 q 0.0662,2.08653 1.45726,3.14636 1.39103,1.02671 3.51068,1.02671 2.35149,0 4.47115,-0.72863 l 0.59615,2.78204 q -2.38461,1.02671 -5.63033,1.02671 -3.87499,0 -6.09401,-2.18589 -2.21901,-2.21902 -2.21901,-5.96153 0,-3.57692 2.08653,-6.12713 2.11966,-2.5502 5.79593,-2.5502 1.8547,0 3.27884,0.72863 1.42415,0.69551 2.1859,1.88781 0.76175,1.19231 1.12606,2.51709 0.36432,1.29167 0.36432,2.71581 0,0.99359 -0.13248,1.72222 z m -10.79699,-2.84829 h 7.0876 q 0.0331,-1.45726 -0.76176,-2.68268 -0.76175,-1.25855 -2.58332,-1.25855 -1.72222,0 -2.64957,1.22543 -0.92735,1.22542 -1.09295,2.7158 z m 21.7265,-9.37284 4.00747,-1.12607 v 4.13995 h 3.87499 v 3.047 h -3.87499 v 7.12072 q 0,1.5235 0.46368,2.25213 0.49679,0.72863 1.62286,0.72863 0.99358,0 1.58974,-0.1656 l 0.0662,3.08013 q -1.09295,0.43055 -2.94765,0.43055 -2.28525,0 -3.51068,-1.32478 -1.29166,-1.32479 -1.29166,-4.53739 v -7.58439 h -2.28525 v -3.047 h 2.28525 z m 10.96258,19.14313 v -23.51492 h 4.07371 v 9.57156 h 0.0662 q 0.76175,-1.15918 2.02029,-1.82157 1.29167,-0.72863 2.81517,-0.72863 2.35149,0 3.97435,1.72221 1.65598,1.6891 1.65598,5.26602 v 9.50533 h -4.07371 v -9.07477 q 0,-1.8547 -0.76175,-2.98077 -0.76175,-1.12606 -2.35149,-1.12606 -1.12607,0 -1.98718,0.66239 -0.82799,0.62927 -1.1923,1.62286 -0.1656,0.46367 -0.1656,1.22542 v 9.67093 z m 32.62282,-6.922 h -10.79699 q 0.0662,2.08653 1.45726,3.14636 1.39102,1.02671 3.51068,1.02671 2.35149,0 4.47114,-0.72863 l 0.59616,2.78204 q -2.38461,1.02671 -5.63033,1.02671 -3.875,0 -6.09401,-2.18589 -2.21901,-2.21902 -2.21901,-5.96153 0,-3.57692 2.08653,-6.12713 2.11966,-2.5502 5.79593,-2.5502 1.8547,0 3.27884,0.72863 1.42414,0.69551 2.18589,1.88781 0.76176,1.19231 1.12607,2.51709 0.36432,1.29167 0.36432,2.71581 0,0.99359 -0.13248,1.72222 z m -10.79699,-2.84829 h 7.08759 q 0.0331,-1.45726 -0.76175,-2.68268 -0.76175,-1.25855 -2.58333,-1.25855 -1.72222,0 -2.64956,1.22543 -0.92735,1.22542 -1.09295,2.7158 z m 20.07053,8.97541 0.82799,-2.98076 q 1.88782,1.19231 4.10683,1.19231 2.58333,0 2.58333,-1.82158 0,-0.79487 -0.56303,-1.29167 -0.56303,-0.49679 -2.08654,-1.05982 -4.43802,-1.49038 -4.43802,-4.70299 0,-2.18589 1.65598,-3.61003 1.6891,-1.42414 4.43802,-1.42414 2.55021,0 4.30555,0.96046 l -0.82799,2.84829 q -1.55662,-0.92735 -3.41132,-0.92735 -1.05982,0 -1.65598,0.49679 -0.59615,0.46368 -0.59615,1.22543 0,0.72863 0.59615,1.1923 0.59616,0.46368 2.21902,1.05983 2.21901,0.76175 3.24572,1.95406 1.0267,1.15918 1.05982,2.94764 0,2.28525 -1.72222,3.67628 -1.72221,1.39102 -4.83546,1.39102 -2.8814,0 -4.9017,-1.12607 z m 15.46685,-18.34825 4.00747,-1.12607 v 4.13995 h 3.87499 v 3.047 h -3.87499 v 7.12072 q 0,1.5235 0.46368,2.25213 0.49679,0.72863 1.62286,0.72863 0.99358,0 1.58974,-0.1656 l 0.0662,3.08013 q -1.09295,0.43055 -2.94765,0.43055 -2.28525,0 -3.51068,-1.32478 -1.29166,-1.32479 -1.29166,-4.53739 v -7.58439 h -2.28525 v -3.047 h 2.28525 z m 23.4818,9.4722 v 5.79593 q 0,2.55021 0.26496,3.875 h -3.67628 l -0.29807,-1.78846 h -0.0994 q -1.65598,2.15277 -4.76923,2.15277 -2.31837,0 -3.70939,-1.42414 -1.3579,-1.42414 -1.3579,-3.3782 0,-2.98076 2.51709,-4.53739 2.51709,-1.58974 7.05447,-1.55662 v -0.26495 q 0,-1.09295 -0.69551,-1.95406 -0.69551,-0.86111 -2.58333,-0.86111 -2.45085,0 -4.33867,1.19231 l -0.79487,-2.64957 q 2.31837,-1.42414 5.82905,-1.42414 3.57692,0 5.10042,1.92093 1.55662,1.88782 1.55662,4.9017 z m -3.97435,4.00747 v -2.21901 q -5.63033,-0.0662 -5.63033,3.01388 0,1.12607 0.62927,1.72222 0.66239,0.59616 1.6891,0.59616 1.1923,0 2.02029,-0.62928 0.86111,-0.66239 1.19231,-1.58974 0.0994,-0.29807 0.0994,-0.89423 z m 8.74351,-13.47967 4.00747,-1.12607 v 4.13995 h 3.875 v 3.047 h -3.875 v 7.12072 q 0,1.5235 0.46368,2.25213 0.49679,0.72863 1.62286,0.72863 0.99359,0 1.58974,-0.1656 l 0.0662,3.08013 q -1.09295,0.43055 -2.94765,0.43055 -2.28525,0 -3.51067,-1.32478 -1.29167,-1.32479 -1.29167,-4.53739 v -7.58439 h -2.28525 v -3.047 h 2.28525 z m 15.03632,19.14313 h -4.07371 v -16.12925 h 4.07371 z m -2.0203,-22.85253 q 1.02671,0 1.62286,0.62927 0.62928,0.62928 0.6624,1.58975 0,0.92734 -0.6624,1.55662 -0.62927,0.62927 -1.65598,0.62927 -0.99358,0 -1.62286,-0.62927 -0.62927,-0.62928 -0.62927,-1.55662 0,-0.96047 0.62927,-1.58975 0.6624,-0.62927 1.65598,-0.62927 z m 13.74463,6.35897 q 3.57691,0 5.79593,2.31837 2.21901,2.28525 2.21901,5.96152 0,4.17307 -2.45085,6.39209 -2.45085,2.18589 -5.82905,2.18589 -3.51068,0 -5.79593,-2.25213 -2.28525,-2.25213 -2.28525,-6.06089 0,-3.90811 2.31837,-6.22648 2.31837,-2.31837 6.02777,-2.31837 z m -0.0994,2.94764 q -2.0203,0 -3.047,1.62286 -0.99359,1.62286 -0.99359,3.87499 0,2.38461 1.09294,3.94124 1.09295,1.5235 2.91453,1.5235 1.75534,0 2.84828,-1.5235 1.09295,-1.55663 1.09295,-4.00748 0,-2.15277 -0.99359,-3.77563 -0.99358,-1.65598 -2.91452,-1.65598 z m 11.45937,13.54592 v -11.32691 q 0,-2.02029 -0.13248,-4.80234 h 3.5438 l 0.19872,2.41773 h 0.0994 q 0.62928,-1.12606 1.95406,-1.95405 1.3579,-0.82799 3.2126,-0.82799 2.38461,0 4.04059,1.68909 1.6891,1.6891 1.6891,5.2329 v 9.57157 h -4.07371 v -9.10789 q 0,-1.8547 -0.76175,-2.94765 -0.72863,-1.12606 -2.31837,-1.12606 -1.15919,0 -1.98718,0.69551 -0.82799,0.69551 -1.1923,1.6891 -0.19872,0.49679 -0.19872,1.29166 v 9.50533 z"
         id="path11" /><path
         style="font-weight:600;font-family:'Myriad Pro';-inkscape-font-specification:'Myriad Pro Semi-Bold';stroke-width:0.869279"
         d="m 101.5317,267.05667 h -4.073711 v -16.12925 h 4.073711 z m -2.020296,-22.85253 q 1.026706,0 1.622856,0.62928 0.62928,0.62927 0.6624,1.58974 0,0.92735 -0.6624,1.55662 -0.62927,0.62927 -1.655975,0.62927 -0.993588,0 -1.622861,-0.62927 -0.629272,-0.62927 -0.629272,-1.55662 0,-0.96047 0.629272,-1.58974 0.662392,-0.62928 1.65598,-0.62928 z m 6.425216,22.85253 v -11.32691 q 0,-2.02029 -0.13247,-4.80234 h 3.47755 l 0.19872,2.38461 h 0.0994 q 1.65598,-2.74892 4.96794,-2.74892 1.55662,0 2.74893,0.82799 1.1923,0.79487 1.72222,2.15277 h 0.0662 q 0.82799,-1.29166 1.95406,-2.02029 1.42414,-0.96047 3.31196,-0.96047 2.25213,0 3.80875,1.72222 1.55663,1.6891 1.55663,5.26601 v 9.50533 h -3.97436 v -8.90917 q 0,-4.27243 -2.8814,-4.27243 -0.99359,0 -1.75534,0.62927 -0.76175,0.59615 -1.09295,1.5235 -0.19871,0.56303 -0.19871,1.3579 v 9.67093 h -3.97436 v -9.33973 q 0,-1.75534 -0.72863,-2.78205 -0.69551,-1.05982 -2.05341,-1.05982 -1.05983,0 -1.8547,0.69551 -0.76175,0.66239 -1.09295,1.58974 -0.19871,0.62927 -0.19871,1.3579 v 9.53845 z m 28.08541,0 v -11.32691 q 0,-2.02029 -0.13248,-4.80234 h 3.47756 l 0.19872,2.38461 h 0.0994 q 1.65598,-2.74892 4.96794,-2.74892 1.55662,0 2.74892,0.82799 1.19231,0.79487 1.72222,2.15277 h 0.0662 q 0.82799,-1.29166 1.95406,-2.02029 1.42414,-0.96047 3.31196,-0.96047 2.25213,0 3.80875,1.72222 1.55662,1.6891 1.55662,5.26601 v 9.50533 h -3.97435 v -8.90917 q 0,-4.27243 -2.88141,-4.27243 -0.99358,0 -1.75533,0.62927 -0.76175,0.59615 -1.09295,1.5235 -0.19872,0.56303 -0.19872,1.3579 v 9.67093 h -3.97435 v -9.33973 q 0,-1.75534 -0.72863,-2.78205 -0.69551,-1.05982 -2.05342,-1.05982 -1.05982,0 -1.85469,0.69551 -0.76175,0.66239 -1.09295,1.58974 -0.19872,0.62927 -0.19872,1.3579 v 9.53845 z m 41.7638,-6.922 h -10.79699 q 0.0662,2.08654 1.45726,3.14636 1.39102,1.02671 3.51068,1.02671 2.35149,0 4.47114,-0.72863 l 0.59616,2.78205 q -2.38461,1.0267 -5.63033,1.0267 -3.875,0 -6.09401,-2.18589 -2.21901,-2.21901 -2.21901,-5.96153 0,-3.57691 2.08653,-6.12712 2.11966,-2.55021 5.79593,-2.55021 1.8547,0 3.27884,0.72863 1.42414,0.69551 2.18589,1.88782 0.76175,1.1923 1.12607,2.51708 0.36432,1.29167 0.36432,2.71581 0,0.99359 -0.13248,1.72222 z m -10.79699,-2.84828 h 7.08759 q 0.0331,-1.45727 -0.76175,-2.68269 -0.76175,-1.25855 -2.58333,-1.25855 -1.72222,0 -2.64956,1.22543 -0.92735,1.22542 -1.09295,2.71581 z m 25.00532,-13.74464 h 4.07371 v 18.97753 q 0,2.35149 0.13248,4.53739 h -3.61004 l -0.19872,-2.55021 h -0.0662 q -0.72864,1.3579 -2.11966,2.15277 -1.39102,0.76175 -3.11324,0.76175 -2.94765,0 -4.93482,-2.28525 -1.98718,-2.28525 -1.98718,-5.96153 -0.0331,-3.90811 2.05342,-6.2596 2.11965,-2.35149 5.16666,-2.35149 1.58974,0 2.78204,0.59615 1.19231,0.56303 1.75534,1.49038 h 0.0662 z m 0,16.52668 v -2.41773 q 0,-0.59615 -0.0994,-1.09295 -0.29808,-1.22542 -1.25854,-2.02029 -0.92735,-0.82799 -2.25214,-0.82799 -1.92093,0 -3.01388,1.49038 -1.05983,1.49038 -1.05983,3.80875 0,2.28526 1.05983,3.7094 1.09295,1.42414 2.98076,1.42414 1.25855,0 2.21902,-0.79487 0.99358,-0.79487 1.29166,-2.08653 0.13248,-0.4968 0.13248,-1.19231 z m 12.51919,6.98824 h -4.07371 v -16.12925 h 4.07371 z m -2.02029,-22.85253 q 1.0267,0 1.62286,0.62928 0.62927,0.62927 0.66239,1.58974 0,0.92735 -0.66239,1.55662 -0.62928,0.62927 -1.65598,0.62927 -0.99359,0 -1.62286,-0.62927 -0.62928,-0.62927 -0.62928,-1.55662 0,-0.96047 0.62928,-1.58974 0.66239,-0.62928 1.65598,-0.62928 z m 18.94442,13.1816 v 5.79593 q 0,2.55021 0.26496,3.875 h -3.67628 l -0.29808,-1.78846 h -0.0994 q -1.65598,2.15277 -4.76922,2.15277 -2.31837,0 -3.70939,-1.42414 -1.35791,-1.42414 -1.35791,-3.3782 0,-2.98076 2.51709,-4.53738 2.51709,-1.58974 7.05448,-1.55663 v -0.26495 q 0,-1.09295 -0.69551,-1.95406 -0.69552,-0.86111 -2.58333,-0.86111 -2.45085,0 -4.33867,1.19231 l -0.79487,-2.64957 q 2.31837,-1.42414 5.82905,-1.42414 3.57692,0 5.10042,1.92093 1.55662,1.88782 1.55662,4.9017 z m -3.97435,4.00748 v -2.21902 q -5.63033,-0.0662 -5.63033,3.01389 0,1.12606 0.62927,1.72222 0.66239,0.59615 1.6891,0.59615 1.1923,0 2.02029,-0.62927 0.86111,-0.6624 1.19231,-1.58974 0.0994,-0.29808 0.0994,-0.89423 z m 8.74354,-13.47968 4.00747,-1.12607 v 4.13995 h 3.87499 v 3.04701 h -3.87499 v 7.12071 q 0,1.5235 0.46368,2.25213 0.49679,0.72863 1.62286,0.72863 0.99358,0 1.58974,-0.16559 l 0.0662,3.08012 q -1.09295,0.43055 -2.94765,0.43055 -2.28525,0 -3.51068,-1.32478 -1.29166,-1.32479 -1.29166,-4.53739 v -7.58438 h -2.28525 v -3.04701 h 2.28525 z m 24.44224,12.22113 h -10.79699 q 0.0662,2.08654 1.45726,3.14636 1.39103,1.02671 3.51068,1.02671 2.35149,0 4.47115,-0.72863 l 0.59615,2.78205 q -2.38461,1.0267 -5.63033,1.0267 -3.87499,0 -6.09401,-2.18589 -2.21901,-2.21901 -2.21901,-5.96153 0,-3.57691 2.08653,-6.12712 2.11966,-2.55021 5.79593,-2.55021 1.8547,0 3.27884,0.72863 1.42415,0.69551 2.1859,1.88782 0.76175,1.1923 1.12606,2.51708 0.36432,1.29167 0.36432,2.71581 0,0.99359 -0.13248,1.72222 z m -10.79699,-2.84828 h 7.0876 q 0.0331,-1.45727 -0.76176,-2.68269 -0.76175,-1.25855 -2.58332,-1.25855 -1.72222,0 -2.64957,1.22543 -0.92735,1.22542 -1.09295,2.71581 z m 14.20833,9.77028 v -23.51492 h 4.07371 v 23.51492 z m 6.5908,-16.12925 h 4.50427 l 2.8814,8.64422 q 0.52991,1.62286 0.92735,3.11324 h 0.0994 q 0.62927,-2.41773 0.86111,-3.14636 l 2.51709,-8.6111 h 4.33867 l -4.0406,10.99571 q -1.65598,4.47115 -2.91452,6.78952 -1.25855,2.31837 -2.68269,3.57691 -2.05341,1.75534 -4.27243,2.05342 l -0.92734,-3.41132 q 1.1923,-0.26496 2.35149,-1.12607 1.39102,-0.86111 2.25213,-2.55021 0.23184,-0.43055 0.23184,-0.72863 0,-0.33119 -0.19872,-0.79487 z"
         id="path12" /></g></g></svg>
