<?xml version="1.0" encoding="UTF-8" standalone="no"?>
<!-- Created with Inkscape (http://www.inkscape.org/) -->

<svg
   width="120"
   height="130"
   viewBox="0 0 31.75 34.395834"
   version="1.1"
   id="svg5"
   xml:space="preserve"
   sodipodi:docname="W-40.svg"
   inkscape:version="1.3 (0e150ed6c4, 2023-07-21)"
   inkscape:export-filename="../w_icon/W-32.svg"
   inkscape:export-xdpi="96"
   inkscape:export-ydpi="96"
   xmlns:inkscape="http://www.inkscape.org/namespaces/inkscape"
   xmlns:sodipodi="http://sodipodi.sourceforge.net/DTD/sodipodi-0.dtd"
   xmlns="http://www.w3.org/2000/svg"
   xmlns:svg="http://www.w3.org/2000/svg"><sodipodi:namedview
     id="namedview22"
     pagecolor="#ffffff"
     bordercolor="#000000"
     borderopacity="0.25"
     inkscape:showpageshadow="2"
     inkscape:pageopacity="0.0"
     inkscape:pagecheckerboard="0"
     inkscape:deskcolor="#d1d1d1"
     showgrid="false"
     inkscape:zoom="2.4395184"
     inkscape:cx="34.023109"
     inkscape:cy="19.880973"
     inkscape:window-width="1920"
     inkscape:window-height="1001"
     inkscape:window-x="0"
     inkscape:window-y="0"
     inkscape:window-maximized="1"
     inkscape:current-layer="svg5" /><defs
     id="defs2" /><g
     inkscape:groupmode="layer"
     id="layer2"
     inkscape:label="Layer 2"
     style="display:inline"><path
       d="m 13.909745,4.1211955 c -0.456145,1.117e-4 -0.911444,0.040056 -1.36064,0.1193726 -0.449204,0.079197 -0.89067,0.1974742 -1.319299,0.3534668 C 10.801077,4.7500276 10.38676,4.94318 9.9916383,5.1712606 9.5966263,5.3993325 9.2222538,5.6614797 8.8728435,5.9546754 8.5234097,6.2478858 8.2002214,6.5710741 7.907011,6.9205079 7.6138154,7.2699182 7.3516681,7.6442907 7.1235963,8.0393026 6.9516282,8.3508062 6.8010658,8.6736866 6.6729778,9.0056519 6.635611,9.0041143 6.5982281,9.0029084 6.5608399,9.0020346 6.1470381,9.0020521 5.7342046,9.0427296 5.328357,9.1234742 4.9224054,9.2040686 4.5253229,9.3243704 4.1428996,9.4826254 3.7606925,9.6410436 3.3949416,9.8366416 3.0509766,10.066569 2.7068188,10.296559 2.3860713,10.559838 2.0934123,10.852568 1.8008894,11.145088 1.5377845,11.46566 1.3079305,11.809615 1.0779732,12.153744 0.88237454,12.51967 0.72398682,12.902055 0.56558763,13.284293 0.44511306,13.681202 0.36431885,14.086996 0.28374777,14.49286 0.24324336,14.905694 0.243396,15.319479 c -1.5264e-4,0.413784 0.0403518,0.826618 0.12092285,1.232482 0.0807615,0.40597 0.20123652,0.803053 0.35966797,1.185458 0.15841821,0.382207 0.35401618,0.747958 0.58394368,1.091923 0.2298265,0.344134 0.4929323,0.664881 0.7854818,0.957564 0.2926832,0.29255 0.6134299,0.555655 0.9575643,0.785482 0.343965,0.229927 0.7097159,0.425525 1.091923,0.583944 0.3824047,0.158431 0.7794876,0.278906 1.1854574,0.359668 0.3761272,0.07206 0.7580594,0.109765 1.1410156,0.112654 0.014809,0.0014 0.029623,0.0028 0.044442,0.0041 h 0.094051 20.4199424 c 0.06042,-0.0056 0.120727,-0.01253 0.180867,-0.02067 0.269358,-0.0056 0.53765,-0.03585 0.801502,-0.09043 0.322327,-0.07368 0.635388,-0.183404 0.933276,-0.327112 0.297884,-0.143899 0.578703,-0.320884 0.837158,-0.527616 0.258475,-0.206442 0.493009,-0.441323 0.699183,-0.700216 0.206157,-0.259115 0.382623,-0.540627 0.526066,-0.839225 0.143465,-0.29854 0.253019,-0.612294 0.326595,-0.935344 0.07351,-0.322959 0.110609,-0.65318 0.110587,-0.984436 4.4e-5,-0.12211 -0.005,-0.244173 -0.01499,-0.365869 -0.01,-0.12149 -0.02499,-0.242519 -0.04496,-0.362768 -0.02004,-0.120356 -0.04504,-0.239833 -0.07493,-0.358118 -0.02996,-0.118179 -0.06479,-0.23507 -0.104387,-0.350366 -0.0394,-0.115292 -0.08353,-0.228907 -0.132291,-0.340548 -0.04886,-0.111719 -0.102302,-0.221369 -0.160197,-0.328662 -0.05801,-0.10727 -0.120418,-0.212092 -0.187069,-0.314193 -0.0665,-0.1021 -0.137188,-0.201406 -0.211873,-0.297656 -0.07485,-0.09624 -0.153637,-0.189339 -0.236162,-0.279053 -0.08237,-0.08965 -0.168397,-0.175851 -0.257865,-0.258382 -0.08955,-0.08271 -0.182475,-0.161669 -0.278536,-0.236678 -0.09608,-0.07487 -0.195215,-0.145728 -0.297139,-0.21239 -0.101771,-0.06665 -0.206249,-0.12906 -0.31316,-0.187069 -0.107122,-0.05808 -0.216599,-0.111701 -0.328145,-0.160714 -0.111468,-0.04895 -0.224911,-0.09325 -0.340031,-0.132808 -0.11513,-0.03961 -0.231848,-0.07444 -0.349849,-0.104386 -0.117939,-0.03007 -0.237071,-0.05524 -0.357084,-0.07545 -0.03904,-0.0053 -0.07814,-0.01017 -0.117306,-0.01447 0.0081,-0.05508 0.02123,-0.108691 0.02739,-0.164331 0.01885,-0.170243 0.02842,-0.342877 0.02842,-0.517798 v -0.306958 c 0,-0.174922 -0.0096,-0.347556 -0.02842,-0.517798 -0.01885,-0.170242 -0.04693,-0.338083 -0.08372,-0.502812 -0.03678,-0.164729 -0.08211,-0.326343 -0.135909,-0.484725 -0.0538,-0.158382 -0.116126,-0.313369 -0.186035,-0.4645709 C 27.188892,9.7179636 27.111358,9.5705187 27.026258,9.4273316 26.941157,9.2841446 26.848649,9.1451584 26.749272,9.0108196 26.649895,8.8764807 26.543684,8.7468697 26.430945,8.6222128 26.318206,8.4975559 26.199048,8.3777195 26.073861,8.2635784 25.948674,8.1494372 25.817324,8.0408085 25.680603,7.9380168 25.543883,7.8352252 25.401612,7.7382037 25.254273,7.6475953 25.106933,7.5569869 24.954497,7.472489 24.797453,7.3948975 24.640409,7.3173061 24.478562,7.2467648 24.312728,7.1830242 24.146894,7.1192835 23.976908,7.0625816 23.803198,7.0135255 23.629489,6.9644693 23.452119,6.9230399 23.271448,6.889502 23.090777,6.855964 22.906778,6.830207 22.72006,6.813021 22.533343,6.795835 22.343986,6.787183 22.152136,6.787183 c -0.191849,0 -0.381206,0.00865 -0.567924,0.025838 -0.186717,0.017186 -0.370716,0.042943 -0.551387,0.076481 -0.180671,0.033538 -0.358041,0.074967 -0.531751,0.1240235 -0.139348,0.039352 -0.274422,0.087054 -0.40876,0.135909 C 20.045028,7.0863556 19.996788,7.023989 19.94762,6.9623658 19.842991,6.8360014 19.734412,6.7129444 19.622058,6.5933961 19.50964,6.4736783 19.393477,6.3575151 19.273759,6.2450969 19.154041,6.1327351 19.030812,6.0241554 18.904273,5.9195354 18.777931,5.8148983 18.648325,5.7142467 18.515666,5.617745 18.382861,5.52135 18.24705,5.4291434 18.108456,5.3412761 17.96987,5.2533172 17.828544,5.169728 17.684709,5.0906454 17.540842,5.011657 17.394518,4.9372024 17.245976,4.8674032 17.097517,4.7974063 16.946885,4.7320862 16.794324,4.6715495 16.641767,4.6112521 16.487343,4.5557559 16.331303,4.5051514 16.175173,4.4543909 16.017474,4.4085461 15.858464,4.3676921 15.699437,4.3268379 15.539152,4.2909893 15.377873,4.2602051 15.216632,4.229453 15.054452,4.203773 14.891598,4.1832072 14.728832,4.1625799 14.565445,4.1470686 14.401705,4.1366984 14.237926,4.1263808 14.07385,4.1212104 13.909745,4.1211955 Z"
       style="fill:#f9b728;fill-opacity:1;stroke-width:4.23333"
       id="path4" /><rect
       style="fill:#f9b728;fill-opacity:1;stroke-width:4.23333"
       id="rect4"
       width="1.4998006"
       height="6.5405622"
       x="22.12002"
       y="16.922844"
       ry="0.74990028"
       rx="0.74990028"
       transform="rotate(32.344342)" /><rect
       style="display:inline;fill:#f9b728;fill-opacity:1;stroke-width:4.23333"
       id="rect4-2"
       width="1.5612723"
       height="6.4855871"
       x="18.214802"
       y="17.438324"
       ry="0.78063613"
       rx="0.78063613"
       transform="rotate(32.344342)" /><rect
       style="display:inline;fill:#f9b728;fill-opacity:1;stroke-width:4.23333"
       id="rect4-9"
       width="1.5066617"
       height="6.7287769"
       x="18.114716"
       y="9.2106514"
       ry="0.75333083"
       rx="0.75333083"
       transform="rotate(32.344342)" /><rect
       style="display:inline;fill:#f9b728;fill-opacity:1;stroke-width:4.23333"
       id="rect4-6"
       width="1.5376056"
       height="6.3721981"
       x="25.968405"
       y="12.547825"
       ry="0.76880282"
       rx="0.76880282"
       transform="rotate(32.344342)" /><rect
       style="display:inline;fill:#f9b728;fill-opacity:1;stroke-width:4.23333"
       id="rect4-6-7"
       width="1.5486661"
       height="6.5417089"
       x="29.973471"
       y="12.004582"
       ry="0.77433306"
       rx="0.77433306"
       transform="rotate(32.344342)" /><rect
       style="display:inline;fill:#f9b728;fill-opacity:1;stroke-width:4.23333"
       id="rect4-6-7-5"
       width="1.5066617"
       height="6.7287769"
       x="29.910055"
       y="3.4496343"
       ry="0.75333083"
       rx="0.75333083"
       transform="rotate(32.344342)" /><rect
       style="display:inline;fill:#f9b728;fill-opacity:1;stroke-width:4.23333"
       id="rect4-6-7-5-3"
       width="1.5066617"
       height="6.7287769"
       x="25.917921"
       y="4.3363299"
       ry="0.75333083"
       rx="0.75333083"
       transform="rotate(32.344342)" /><rect
       style="display:inline;fill:#f9b728;fill-opacity:1;stroke-width:4.23333"
       id="rect4-6-7-5-3-5"
       width="1.5066617"
       height="6.7287769"
       x="33.694775"
       y="-0.45032507"
       ry="0.75333083"
       rx="0.75333083"
       transform="rotate(32.344342)" /><rect
       style="display:inline;fill:#f9b728;fill-opacity:1;stroke-width:4.23333"
       id="rect4-6-7-5-3-5-6"
       width="1.4910159"
       height="6.4890537"
       x="33.790939"
       y="7.6109715"
       ry="0.74550796"
       rx="0.74550796"
       transform="rotate(32.344342)" /><rect
       style="display:inline;fill:#f9b728;fill-opacity:1;stroke-width:4.23333"
       id="rect4-3"
       width="1.5066617"
       height="6.7287769"
       x="22.083323"
       y="8.5875254"
       ry="0.75333083"
       rx="0.75333083"
       transform="rotate(32.344342)" /></g></svg>
